<svg width="18" height="18" viewBox="0 0 18 18" fill="none" xmlns="http://www.w3.org/2000/svg">
<path d="M12.2 9.72005V13.08C12.2 15.88 11.08 17 8.28 17H4.92C2.12 17 1 15.88 1 13.08V9.72005C1 6.92005 2.12 5.80005 4.92 5.80005H8.28C11.08 5.80005 12.2 6.92005 12.2 9.72005Z" stroke="#5B647B" stroke-width="1.5" stroke-linecap="round" stroke-linejoin="round"/>
<path d="M16.9998 4.92V8.28C16.9998 11.08 15.8798 12.2 13.0798 12.2V12.2C12.5938 12.2 12.1998 11.806 12.1998 11.32V9.72C12.1998 6.92 11.0798 5.8 8.27981 5.8H6.6798C6.19379 5.8 5.7998 5.40601 5.7998 4.92V4.92C5.7998 2.12 6.9198 1 9.7198 1H13.0798C15.8798 1 16.9998 2.12 16.9998 4.92Z" stroke="#5B647B" stroke-width="1.5" stroke-linecap="round" stroke-linejoin="round"/>
</svg>
