<svg width="200" height="34" viewBox="0 0 200 34" fill="none" xmlns="http://www.w3.org/2000/svg">
<path d="M26.9348 20.2093H23.5676C21.7082 20.2093 20.2003 18.7008 20.2003 16.8406C20.2003 14.9804 21.7082 13.4719 23.5676 13.4719H26.9348C30.6535 13.4719 33.6677 10.4563 33.6677 6.73593C33.6677 3.01556 30.6535 0 26.9348 0C23.2161 0 20.2019 3.01557 20.2019 6.73745V10.1062C20.2019 11.9664 18.694 13.4749 16.8346 13.4749C14.9753 13.4749 13.4674 11.9664 13.4674 10.1062V6.73745C13.4674 3.01557 10.4532 0 6.73294 0C3.01271 0 0 3.01557 0 6.73745C0 10.4593 3.01423 13.4734 6.73294 13.4734H10.1002C11.9595 13.4734 13.4674 14.9819 13.4674 16.8421C13.4674 18.7023 11.9595 20.2108 10.1002 20.2108H6.73294C3.01423 20.2108 0 23.2264 0 26.9483C0 30.6702 3.01423 33.6842 6.73294 33.6842C10.4517 33.6842 13.4659 30.6686 13.4659 26.9483V23.5796C13.4659 21.7194 14.9738 20.2108 16.8331 20.2108C18.6925 20.2108 20.2003 21.7194 20.2003 23.5796V26.9483C20.2003 30.6686 23.2146 33.6842 26.9333 33.6842C30.652 33.6842 33.6662 30.6686 33.6662 26.9483C33.6662 23.2279 30.652 20.2108 26.9333 20.2108L26.9348 20.2093Z" fill="url(#paint0_linear_25_6679)"/>
<path d="M54.5817 10.0111H44.9047V24.5922H47.4988V14.3855H54.7858C58.0503 14.3855 58.6916 15.8727 58.6916 17.8266V24.5922H61.5189V15.8144C61.5189 10.2444 57.0885 10.0111 54.5817 10.0111Z" fill="white"/>
<path d="M85.527 24.5922V15.9019C85.4687 11.1485 82.7288 10.0111 80.2221 10.0111H65.8813V14.3855H78.823C82.0875 14.3855 82.9328 15.7269 82.9328 17.7974V20.2179H67.7468C67.0472 20.2179 66.6975 19.8971 66.6975 19.4305C66.6975 18.9639 67.0472 18.7015 67.7468 18.7015H80.0472V15.9019H72.2064C68.0383 15.9019 65.2984 16.6893 65.2984 19.9554C65.2984 24.6505 70.1661 24.5922 72.7894 24.5922H85.527Z" fill="white"/>
<path d="M110.615 14.3855C113.909 14.3855 114.55 15.7269 114.55 17.7974V24.5922H117.348V15.9311C117.348 10.3611 113.122 10.0111 110.411 10.0111H109.566C107.321 10.0111 105.689 10.5069 103.911 12.2858C102.628 10.3611 100.297 10.0111 98.5185 10.0111H89.3369V24.5922H92.4849V14.3855H98.1396C101.404 14.3855 102.016 15.8436 102.016 17.7974V24.5922H104.844V16.7768C104.814 14.9979 106.534 14.3855 107.671 14.3855H110.615Z" fill="white"/>
<path d="M123.156 17.3017C123.156 15.377 124.701 14.3855 126.1 14.3855H137.643C138.284 14.3855 139.013 14.3855 139.013 15.1145C139.013 15.9019 138.051 15.9019 137.643 15.9019H126.129V18.7015H133.504C137.235 18.6723 140.412 18.5848 140.412 14.6771C140.412 10.7985 137.264 10.0111 134.436 10.0111H127.966C124.118 10.0111 121.116 12.4316 121.116 17.3017C121.116 21.9968 124.206 24.5922 127.995 24.5922H139.77V20.2179H125.867C124.147 20.2179 123.156 18.8181 123.156 17.3017Z" fill="white"/>
<path d="M149.767 20.2179C146.939 20.2179 146.473 18.7889 146.473 16.9226V4.17872H143.646V18.7889C143.646 23.5132 146.386 24.5922 148.98 24.5922H151.778V20.2179H149.767Z" fill="white"/>
<path d="M158.334 24.5922V10.0111H155.302V24.5922H158.334ZM158.334 8.43639V4.17872H155.302V8.43639H158.334Z" fill="white"/>
<path d="M171.853 10.0111H162.176V24.5922H164.77V14.3855H172.057C175.322 14.3855 175.963 15.8727 175.963 17.8266V24.5922H178.79V15.8144C178.79 10.2444 174.36 10.0111 171.853 10.0111Z" fill="white"/>
<path d="M194.783 14.3855H200V10.0111H195.307L185.718 17.7391V4.17872H182.599V24.5922H185.718V21.7052L189.303 18.8764L194.841 24.5922H200V20.2179H194.987L191.926 16.8642L194.783 14.3855Z" fill="white"/>
<defs>
<linearGradient id="paint0_linear_25_6679" x1="107.619" y1="33.6842" x2="107.619" y2="-6.57253" gradientUnits="userSpaceOnUse">
<stop offset="0.0625" stop-color="#D9D5C2"/>
<stop offset="0.140625" stop-color="#B2D2EF"/>
<stop offset="0.473958" stop-color="#18DCAD"/>
<stop offset="1" stop-color="#31C28E"/>
</linearGradient>
</defs>
</svg>
