<svg width="325" height="126" viewBox="0 0 325 126" fill="none" xmlns="http://www.w3.org/2000/svg">
<g filter="url(#filter0_d_297_7617)">
<rect x="32" y="32" width="134" height="62" rx="31" fill="#1F232F"/>
<rect x="32.5" y="32.5" width="133" height="61" rx="30.5" stroke="#39CBA4"/>
</g>
<path d="M72 70.75C76.4183 66.4698 76.4183 59.5302 72 55.25C67.5817 50.9698 60.4183 50.9698 56 55.25C51.5817 59.5302 51.5817 66.4698 56 70.75C60.4183 75.0302 67.5817 75.0302 72 70.75Z" fill="#101419"/>
<path d="M74.6437 59.2759C74.5781 59.2632 74.5034 59.2577 74.4183 59.2586C72.4451 59.2794 70.4714 59.2567 68.4982 59.2762C68.06 59.2805 67.74 59.1521 67.4742 58.8274C67.273 58.5818 67.0572 58.3455 66.8298 58.1224C66.5113 57.8098 66.1494 57.8055 65.8246 58.1083C65.6424 58.2781 65.472 58.4632 65.318 58.6574C64.965 59.1025 64.5251 59.2816 63.9311 59.2781C60.4354 59.2573 56.9394 59.2664 53.4438 59.2735C53.417 59.2735 53.3871 59.2751 53.3556 59.2779C53.0262 60.1621 52.8109 61.0989 52.7266 62.072C52.8122 62.072 52.8931 62.072 52.9737 62.072C55.8917 62.0722 58.8096 62.0866 61.7273 62.0679C63.6484 62.0556 63.0142 62.3309 64.3333 61.0106C64.3626 60.981 64.3919 60.9515 64.4229 60.9237C64.7897 60.5964 65.153 60.609 65.4902 60.9679C65.7083 61.1999 65.9242 61.4345 66.1293 61.6773C66.3697 61.9619 66.6612 62.0803 67.0488 62.0786C69.6989 62.0671 72.3489 62.0725 74.9989 62.0723C75.0834 62.0723 75.1679 62.0723 75.2737 62.0723C75.1894 61.0982 74.9738 60.1604 74.6437 59.2755V59.2759Z" fill="white"/>
<path d="M74.8504 65.0673C71.6225 65.0677 68.3943 65.0697 65.1664 65.0681C63.4662 65.0671 63.9464 65.1854 62.8455 64.044C62.3793 63.5606 62.0277 63.5441 61.5811 64.0295C61.4686 64.1518 61.3552 64.2741 61.2538 64.4048C60.8665 64.904 60.3639 65.0872 59.7134 65.079C57.5148 65.0516 55.3156 65.0679 53.1165 65.0675C53.0456 65.0675 52.9745 65.0675 52.8877 65.0675C53.0841 66.0643 53.42 67.0133 53.8749 67.8946C53.9082 67.8965 53.9431 67.8972 53.9799 67.8965C55.2198 67.8738 56.4607 67.897 57.7011 67.8855C59.4392 67.8696 58.9136 68.083 60.0899 66.9034C60.1487 66.8445 60.2036 66.7816 60.2658 66.7265C60.6046 66.4259 60.9499 66.4237 61.2703 66.7408C61.5263 66.9941 61.7365 67.2956 62.0132 67.5232C62.214 67.6884 62.4895 67.8686 62.7329 67.8701C66.5245 67.8922 70.3164 67.889 74.1083 67.876C74.1173 67.876 74.1269 67.8753 74.1364 67.8742C74.586 66.9986 74.9182 66.0563 75.1131 65.0671C75.0229 65.0671 74.9366 65.0671 74.8502 65.0671L74.8504 65.0673Z" fill="white"/>
<path d="M55.0625 56.2793C59.0446 56.28 63.027 56.2845 67.0089 56.2679C67.2325 56.267 67.4916 56.1334 67.6704 55.9878C67.9816 55.7346 68.2347 55.4157 68.5275 55.1395C68.8645 54.8215 69.2363 54.8286 69.5643 55.1564C69.8389 55.4308 70.0801 55.738 70.3679 55.9977C70.5122 56.1278 70.7247 56.2538 70.9115 56.2614C71.5701 56.2885 72.2304 56.2769 72.934 56.2743C70.864 53.6974 67.6321 52.0396 64.0002 52.0396C60.3662 52.0396 57.1323 53.6996 55.0625 56.2793Z" fill="white"/>
<path d="M60.5238 70.6498C59.5638 70.6641 58.8939 70.4031 58.3375 69.6656C57.8799 69.0594 57.4863 69.0932 56.9732 69.6645C56.6557 70.018 56.3723 70.4197 55.8359 70.5875C57.8948 72.6661 60.7915 73.9601 64.0001 73.9601C67.1884 73.9601 70.0683 72.6824 72.1247 70.627H71.8496C68.0742 70.627 64.2982 70.594 60.5238 70.65V70.6498Z" fill="white"/>
<g filter="url(#filter1_d_297_7617)">
<rect x="87.1328" y="32" width="205.733" height="62" rx="31" fill="#1F232F" shape-rendering="crispEdges"/>
<path d="M145.426 55.802H148.026H148.26V56.036C148.156 56.14 148.096 56.2527 148.078 56.374C148.061 56.4953 148.052 56.7033 148.052 56.998V69.868H155.592V72H145.426V55.802ZM163.392 72.286C162.11 72.286 161.018 71.9653 160.116 71.324C159.232 70.6827 158.565 69.738 158.114 68.49C157.664 67.242 157.438 65.7253 157.438 63.94C157.438 62.1893 157.664 60.6987 158.114 59.468C158.565 58.22 159.232 57.2667 160.116 56.608C161.018 55.9493 162.11 55.62 163.392 55.62C164.692 55.62 165.784 55.9493 166.668 56.608C167.552 57.2667 168.22 58.22 168.67 59.468C169.138 60.6987 169.372 62.1893 169.372 63.94C169.372 65.7253 169.138 67.242 168.67 68.49C168.22 69.738 167.552 70.6827 166.668 71.324C165.784 71.9653 164.692 72.286 163.392 72.286ZM163.392 70.18C164.103 70.18 164.71 69.946 165.212 69.478C165.715 69.01 166.105 68.3167 166.382 67.398C166.66 66.462 166.798 65.3007 166.798 63.914C166.798 62.614 166.66 61.5047 166.382 60.586C166.105 59.6673 165.715 58.9653 165.212 58.48C164.71 57.9773 164.103 57.726 163.392 57.726C162.682 57.726 162.066 57.9773 161.546 58.48C161.044 58.9653 160.662 59.6673 160.402 60.586C160.142 61.5047 160.012 62.614 160.012 63.914C160.012 65.3007 160.142 66.462 160.402 67.398C160.662 68.3167 161.044 69.01 161.546 69.478C162.066 69.946 162.682 70.18 163.392 70.18ZM177.068 72.286C175.734 72.286 174.581 71.948 173.61 71.272C172.64 70.5787 171.894 69.608 171.374 68.36C170.872 67.112 170.62 65.6647 170.62 64.018C170.603 62.6313 170.733 61.4527 171.01 60.482C171.305 59.494 171.686 58.6793 172.154 58.038C172.622 57.3967 173.142 56.894 173.714 56.53C174.286 56.166 174.858 55.9147 175.43 55.776C176.002 55.6373 176.531 55.568 177.016 55.568C177.692 55.568 178.351 55.6807 178.992 55.906C179.634 56.1313 180.214 56.452 180.734 56.868C181.272 57.2667 181.696 57.7607 182.008 58.35L180.448 59.832L180.24 60.014L180.084 59.832C180.102 59.6933 180.084 59.5633 180.032 59.442C179.98 59.3207 179.868 59.1473 179.694 58.922C179.469 58.662 179.226 58.4453 178.966 58.272C178.724 58.0987 178.446 57.9687 178.134 57.882C177.822 57.778 177.458 57.726 177.042 57.726C176.626 57.726 176.228 57.7953 175.846 57.934C175.465 58.0553 175.11 58.2633 174.78 58.558C174.451 58.8353 174.165 59.208 173.922 59.676C173.68 60.144 173.489 60.716 173.35 61.392C173.212 62.0507 173.142 62.822 173.142 63.706C173.142 64.7807 173.238 65.7167 173.428 66.514C173.619 67.3113 173.879 67.9787 174.208 68.516C174.555 69.0533 174.971 69.4607 175.456 69.738C175.942 70.0153 176.479 70.154 177.068 70.154C177.276 70.154 177.493 70.1367 177.718 70.102C177.961 70.0673 178.195 70.024 178.42 69.972C178.663 69.9027 178.888 69.8073 179.096 69.686C179.322 69.5647 179.53 69.4347 179.72 69.296V65.994H176.964V63.862H182.034V70.596C181.272 71.1853 180.466 71.6187 179.616 71.896C178.784 72.156 177.935 72.286 177.068 72.286ZM190.068 72.286C188.734 72.286 187.581 71.948 186.61 71.272C185.64 70.5787 184.894 69.608 184.374 68.36C183.872 67.112 183.62 65.6647 183.62 64.018C183.603 62.6313 183.733 61.4527 184.01 60.482C184.305 59.494 184.686 58.6793 185.154 58.038C185.622 57.3967 186.142 56.894 186.714 56.53C187.286 56.166 187.858 55.9147 188.43 55.776C189.002 55.6373 189.531 55.568 190.016 55.568C190.692 55.568 191.351 55.6807 191.992 55.906C192.634 56.1313 193.214 56.452 193.734 56.868C194.272 57.2667 194.696 57.7607 195.008 58.35L193.448 59.832L193.24 60.014L193.084 59.832C193.102 59.6933 193.084 59.5633 193.032 59.442C192.98 59.3207 192.868 59.1473 192.694 58.922C192.469 58.662 192.226 58.4453 191.966 58.272C191.724 58.0987 191.446 57.9687 191.134 57.882C190.822 57.778 190.458 57.726 190.042 57.726C189.626 57.726 189.228 57.7953 188.846 57.934C188.465 58.0553 188.11 58.2633 187.78 58.558C187.451 58.8353 187.165 59.208 186.922 59.676C186.68 60.144 186.489 60.716 186.35 61.392C186.212 62.0507 186.142 62.822 186.142 63.706C186.142 64.7807 186.238 65.7167 186.428 66.514C186.619 67.3113 186.879 67.9787 187.208 68.516C187.555 69.0533 187.971 69.4607 188.456 69.738C188.942 70.0153 189.479 70.154 190.068 70.154C190.276 70.154 190.493 70.1367 190.718 70.102C190.961 70.0673 191.195 70.024 191.42 69.972C191.663 69.9027 191.888 69.8073 192.096 69.686C192.322 69.5647 192.53 69.4347 192.72 69.296V65.994H189.964V63.862H195.034V70.596C194.272 71.1853 193.466 71.6187 192.616 71.896C191.784 72.156 190.935 72.286 190.068 72.286ZM197.27 72V55.776H207.592V57.908H199.74V62.484H206.214V64.642H199.74V69.868H207.54V72H197.27ZM210.062 72.026V55.802H214.092C215.046 55.802 215.843 55.8887 216.484 56.062C217.143 56.2353 217.698 56.4867 218.148 56.816C218.616 57.1453 219.024 57.5527 219.37 58.038C219.734 58.5233 220.038 59.0693 220.28 59.676C220.54 60.2827 220.731 60.95 220.852 61.678C220.974 62.3887 221.034 63.16 221.034 63.992C221.017 65.24 220.861 66.358 220.566 67.346C220.289 68.334 219.856 69.1747 219.266 69.868C218.694 70.5613 217.958 71.0987 217.056 71.48C216.155 71.844 215.063 72.026 213.78 72.026H210.062ZM212.532 69.998H213.728C214.89 69.998 215.817 69.764 216.51 69.296C217.221 68.8107 217.732 68.126 218.044 67.242C218.374 66.3407 218.538 65.2833 218.538 64.07C218.538 62.7873 218.391 61.6867 218.096 60.768C217.802 59.8493 217.325 59.1387 216.666 58.636C216.025 58.116 215.132 57.856 213.988 57.856H212.532V69.998ZM236.79 72V69.894H239.962V57.908H236.946V55.802H245.604V57.908H242.432V69.92H245.76V72H236.79ZM248.932 55.802H251.558L257.512 66.93L257.408 55.802H259.722H259.982V56.036C259.878 56.14 259.809 56.2527 259.774 56.374C259.757 56.4953 259.748 56.7033 259.748 56.998V72H257.46L251.272 60.196V72H248.932V55.802Z" fill="#39CBA4"/>
<path d="M109.161 64.5033L118.5 49V60.2937L109.161 64.5033Z" fill="white"/>
<path d="M118.5 60.2935V70.0539L109.161 64.5031L118.5 60.2935Z" fill="#3B3B3B"/>
<path d="M118.5 71.3292V78.9999L109.133 65.8054L118.5 71.3292Z" fill="white"/>
<path d="M127.839 64.5033L118.5 49V60.2937L127.839 64.5033Z" fill="#25313F"/>
<path d="M118.5 60.2935V70.0539L127.839 64.5031L118.5 60.2935Z" fill="#1B1B1B"/>
<path d="M118.5 71.3292V78.9999L127.866 65.8054L118.5 71.3292Z" fill="#25313F"/>
<rect x="87.6328" y="32.5" width="204.733" height="61" rx="30.5" stroke="#39CBA4" shape-rendering="crispEdges"/>
</g>
<defs>
<filter id="filter0_d_297_7617" x="0" y="0" width="198" height="126" filterUnits="userSpaceOnUse" color-interpolation-filters="sRGB">
<feFlood flood-opacity="0" result="BackgroundImageFix"/>
<feColorMatrix in="SourceAlpha" type="matrix" values="0 0 0 0 0 0 0 0 0 0 0 0 0 0 0 0 0 0 127 0" result="hardAlpha"/>
<feOffset/>
<feGaussianBlur stdDeviation="16"/>
<feComposite in2="hardAlpha" operator="out"/>
<feColorMatrix type="matrix" values="0 0 0 0 0.196701 0 0 0 0 0.429167 0 0 0 0 0.289688 0 0 0 0.46 0"/>
<feBlend mode="normal" in2="BackgroundImageFix" result="effect1_dropShadow_297_7617"/>
<feBlend mode="normal" in="SourceGraphic" in2="effect1_dropShadow_297_7617" result="shape"/>
</filter>
<filter id="filter1_d_297_7617" x="55.1328" y="0" width="269.733" height="126" filterUnits="userSpaceOnUse" color-interpolation-filters="sRGB">
<feFlood flood-opacity="0" result="BackgroundImageFix"/>
<feColorMatrix in="SourceAlpha" type="matrix" values="0 0 0 0 0 0 0 0 0 0 0 0 0 0 0 0 0 0 127 0" result="hardAlpha"/>
<feOffset/>
<feGaussianBlur stdDeviation="16"/>
<feComposite in2="hardAlpha" operator="out"/>
<feColorMatrix type="matrix" values="0 0 0 0 0.196701 0 0 0 0 0.429167 0 0 0 0 0.289688 0 0 0 0.46 0"/>
<feBlend mode="normal" in2="BackgroundImageFix" result="effect1_dropShadow_297_7617"/>
<feBlend mode="normal" in="SourceGraphic" in2="effect1_dropShadow_297_7617" result="shape"/>
</filter>
</defs>
</svg>
