<svg width="24" height="24" viewBox="0 0 24 24" fill="none" xmlns="http://www.w3.org/2000/svg">
<path fill-rule="evenodd" clip-rule="evenodd" d="M1.0008 21L7.18042 4.11893C7.9644 2.14806 9.42638 1.03236 11.3697 1H11.4134H11.4571C13.4005 1.03236 14.8625 2.14806 15.6464 4.11893L21.8261 21L17.9992 19.6731L12.7201 5.25243C12.3989 4.45469 12.0275 4.16748 11.4126 4.15534C10.7977 4.16828 10.4272 4.4555 10.106 5.25243L4.82686 19.6731L1 21H1.0008ZM14.1019 14.572C14.1019 16.0469 12.9142 17.2419 11.449 17.2419C9.98382 17.2419 8.79693 16.0461 8.79693 14.572C8.79693 13.0979 9.98463 11.9021 11.449 11.9021C12.9134 11.9021 14.1019 13.0971 14.1019 14.572Z" fill="#3692FE"/>
</svg>
