<svg width="24" height="24" viewBox="0 0 24 24" fill="none" xmlns="http://www.w3.org/2000/svg">
<path d="M12 1C18.0751 1 23 5.92495 23 12C23 18.0751 18.0751 23 12 23C5.92495 23 1 18.0751 1 12C1 5.92495 5.92495 1 12 1Z" fill="#0052FF"/>
<path d="M12.0047 15.8655C9.86676 15.8655 8.13921 14.1332 8.13921 12C8.13921 9.86681 9.87154 8.13449 12.0047 8.13449C13.9184 8.13449 15.5075 9.52798 15.813 11.3557H19.7071C19.3778 7.38525 16.0564 4.26421 12 4.26421C7.7288 4.26421 4.26416 7.72885 4.26416 12C4.26416 16.2711 7.7288 19.7358 12 19.7358C16.2711 19.7358 19.3778 16.6147 19.7071 12.6442H15.8082C15.5028 14.472 13.9184 15.8655 12.0047 15.8655Z" fill="white"/>
</svg>
