<svg width="273" height="127" viewBox="0 0 273 127" fill="none" xmlns="http://www.w3.org/2000/svg">
<g filter="url(#filter0_d_297_7529)">
<rect x="32" y="32" width="208.733" height="63" rx="31.5" fill="#1F232F" shape-rendering="crispEdges"/>
<path d="M95.2934 55.802H97.8934H98.1274V56.036C98.0234 56.14 97.9627 56.2527 97.9454 56.374C97.9281 56.4953 97.9194 56.7033 97.9194 56.998V69.868H105.459V72H95.2934V55.802ZM113.259 72.286C111.977 72.286 110.885 71.9653 109.983 71.324C109.099 70.6827 108.432 69.738 107.981 68.49C107.531 67.242 107.305 65.7253 107.305 63.94C107.305 62.1893 107.531 60.6987 107.981 59.468C108.432 58.22 109.099 57.2667 109.983 56.608C110.885 55.9493 111.977 55.62 113.259 55.62C114.559 55.62 115.651 55.9493 116.535 56.608C117.419 57.2667 118.087 58.22 118.537 59.468C119.005 60.6987 119.239 62.1893 119.239 63.94C119.239 65.7253 119.005 67.242 118.537 68.49C118.087 69.738 117.419 70.6827 116.535 71.324C115.651 71.9653 114.559 72.286 113.259 72.286ZM113.259 70.18C113.97 70.18 114.577 69.946 115.079 69.478C115.582 69.01 115.972 68.3167 116.249 67.398C116.527 66.462 116.665 65.3007 116.665 63.914C116.665 62.614 116.527 61.5047 116.249 60.586C115.972 59.6673 115.582 58.9653 115.079 58.48C114.577 57.9773 113.97 57.726 113.259 57.726C112.549 57.726 111.933 57.9773 111.413 58.48C110.911 58.9653 110.529 59.6673 110.269 60.586C110.009 61.5047 109.879 62.614 109.879 63.914C109.879 65.3007 110.009 66.462 110.269 67.398C110.529 68.3167 110.911 69.01 111.413 69.478C111.933 69.946 112.549 70.18 113.259 70.18ZM126.935 72.286C125.601 72.286 124.448 71.948 123.477 71.272C122.507 70.5787 121.761 69.608 121.241 68.36C120.739 67.112 120.487 65.6647 120.487 64.018C120.47 62.6313 120.6 61.4527 120.877 60.482C121.172 59.494 121.553 58.6793 122.021 58.038C122.489 57.3967 123.009 56.894 123.581 56.53C124.153 56.166 124.725 55.9147 125.297 55.776C125.869 55.6373 126.398 55.568 126.883 55.568C127.559 55.568 128.218 55.6807 128.859 55.906C129.501 56.1313 130.081 56.452 130.601 56.868C131.139 57.2667 131.563 57.7607 131.875 58.35L130.315 59.832L130.107 60.014L129.951 59.832C129.969 59.6933 129.951 59.5633 129.899 59.442C129.847 59.3207 129.735 59.1473 129.561 58.922C129.336 58.662 129.093 58.4453 128.833 58.272C128.591 58.0987 128.313 57.9687 128.001 57.882C127.689 57.778 127.325 57.726 126.909 57.726C126.493 57.726 126.095 57.7953 125.713 57.934C125.332 58.0553 124.977 58.2633 124.647 58.558C124.318 58.8353 124.032 59.208 123.789 59.676C123.547 60.144 123.356 60.716 123.217 61.392C123.079 62.0507 123.009 62.822 123.009 63.706C123.009 64.7807 123.105 65.7167 123.295 66.514C123.486 67.3113 123.746 67.9787 124.075 68.516C124.422 69.0533 124.838 69.4607 125.323 69.738C125.809 70.0153 126.346 70.154 126.935 70.154C127.143 70.154 127.36 70.1367 127.585 70.102C127.828 70.0673 128.062 70.024 128.287 69.972C128.53 69.9027 128.755 69.8073 128.963 69.686C129.189 69.5647 129.397 69.4347 129.587 69.296V65.994H126.831V63.862H131.901V70.596C131.139 71.1853 130.333 71.6187 129.483 71.896C128.651 72.156 127.802 72.286 126.935 72.286ZM139.935 72.286C138.601 72.286 137.448 71.948 136.477 71.272C135.507 70.5787 134.761 69.608 134.241 68.36C133.739 67.112 133.487 65.6647 133.487 64.018C133.47 62.6313 133.6 61.4527 133.877 60.482C134.172 59.494 134.553 58.6793 135.021 58.038C135.489 57.3967 136.009 56.894 136.581 56.53C137.153 56.166 137.725 55.9147 138.297 55.776C138.869 55.6373 139.398 55.568 139.883 55.568C140.559 55.568 141.218 55.6807 141.859 55.906C142.501 56.1313 143.081 56.452 143.601 56.868C144.139 57.2667 144.563 57.7607 144.875 58.35L143.315 59.832L143.107 60.014L142.951 59.832C142.969 59.6933 142.951 59.5633 142.899 59.442C142.847 59.3207 142.735 59.1473 142.561 58.922C142.336 58.662 142.093 58.4453 141.833 58.272C141.591 58.0987 141.313 57.9687 141.001 57.882C140.689 57.778 140.325 57.726 139.909 57.726C139.493 57.726 139.095 57.7953 138.713 57.934C138.332 58.0553 137.977 58.2633 137.647 58.558C137.318 58.8353 137.032 59.208 136.789 59.676C136.547 60.144 136.356 60.716 136.217 61.392C136.079 62.0507 136.009 62.822 136.009 63.706C136.009 64.7807 136.105 65.7167 136.295 66.514C136.486 67.3113 136.746 67.9787 137.075 68.516C137.422 69.0533 137.838 69.4607 138.323 69.738C138.809 70.0153 139.346 70.154 139.935 70.154C140.143 70.154 140.36 70.1367 140.585 70.102C140.828 70.0673 141.062 70.024 141.287 69.972C141.53 69.9027 141.755 69.8073 141.963 69.686C142.189 69.5647 142.397 69.4347 142.587 69.296V65.994H139.831V63.862H144.901V70.596C144.139 71.1853 143.333 71.6187 142.483 71.896C141.651 72.156 140.802 72.286 139.935 72.286ZM147.137 72V55.776H157.459V57.908H149.607V62.484H156.081V64.642H149.607V69.868H157.407V72H147.137ZM159.929 72.026V55.802H163.959C164.913 55.802 165.71 55.8887 166.351 56.062C167.01 56.2353 167.565 56.4867 168.015 56.816C168.483 57.1453 168.891 57.5527 169.237 58.038C169.601 58.5233 169.905 59.0693 170.147 59.676C170.407 60.2827 170.598 60.95 170.719 61.678C170.841 62.3887 170.901 63.16 170.901 63.992C170.884 65.24 170.728 66.358 170.433 67.346C170.156 68.334 169.723 69.1747 169.133 69.868C168.561 70.5613 167.825 71.0987 166.923 71.48C166.022 71.844 164.93 72.026 163.647 72.026H159.929ZM162.399 69.998H163.595C164.757 69.998 165.684 69.764 166.377 69.296C167.088 68.8107 167.599 68.126 167.911 67.242C168.241 66.3407 168.405 65.2833 168.405 64.07C168.405 62.7873 168.258 61.6867 167.963 60.768C167.669 59.8493 167.192 59.1387 166.533 58.636C165.892 58.116 164.999 57.856 163.855 57.856H162.399V69.998ZM186.657 72V69.894H189.829V57.908H186.813V55.802H195.471V57.908H192.299V69.92H195.627V72H186.657ZM198.799 55.802H201.425L207.379 66.93L207.275 55.802H209.589H209.849V56.036C209.745 56.14 209.676 56.2527 209.641 56.374C209.624 56.4953 209.615 56.7033 209.615 56.998V72H207.327L201.139 60.196V72H198.799V55.802Z" fill="#39CBA4"/>
<path d="M59.0264 64.4698L67.7427 50V60.5408L59.0264 64.4698Z" fill="white"/>
<path d="M67.7427 60.5405V69.6503L59.0264 64.4695L67.7427 60.5405Z" fill="#3B3B3B"/>
<path d="M67.7429 70.8406V77.9999L59 65.6851L67.7429 70.8406Z" fill="white"/>
<path d="M76.4595 64.4698L67.7432 50V60.5408L76.4595 64.4698Z" fill="#25313F"/>
<path d="M67.7432 60.5405V69.6503L76.4595 64.4695L67.7432 60.5405Z" fill="#1B1B1B"/>
<path d="M67.7432 70.8406V77.9999L76.4847 65.6851L67.7432 70.8406Z" fill="#25313F"/>
<rect x="32.5" y="32.5" width="207.733" height="62" rx="31" stroke="#39CBA4" shape-rendering="crispEdges"/>
</g>
<defs>
<filter id="filter0_d_297_7529" x="0" y="0" width="272.733" height="127" filterUnits="userSpaceOnUse" color-interpolation-filters="sRGB">
<feFlood flood-opacity="0" result="BackgroundImageFix"/>
<feColorMatrix in="SourceAlpha" type="matrix" values="0 0 0 0 0 0 0 0 0 0 0 0 0 0 0 0 0 0 127 0" result="hardAlpha"/>
<feOffset/>
<feGaussianBlur stdDeviation="16"/>
<feComposite in2="hardAlpha" operator="out"/>
<feColorMatrix type="matrix" values="0 0 0 0 0.196701 0 0 0 0 0.429167 0 0 0 0 0.289688 0 0 0 0.46 0"/>
<feBlend mode="normal" in2="BackgroundImageFix" result="effect1_dropShadow_297_7529"/>
<feBlend mode="normal" in="SourceGraphic" in2="effect1_dropShadow_297_7529" result="shape"/>
</filter>
</defs>
</svg>
