<svg width="24" height="24" viewBox="0 0 24 24" fill="none" xmlns="http://www.w3.org/2000/svg">
<path d="M11.9255 22.9999C5.87661 22.9795 0.979675 18.0355 1.00006 11.9662C1.02045 5.82563 5.96071 0.980943 12.1816 1.00006C18.2088 1.0179 23.0191 5.99511 22.9987 12.1905C22.9796 18.1667 18.0062 23.0203 11.9242 22.9999H11.9255ZM3.40329 15.2041C3.61864 15.0728 3.71039 15.0244 3.79576 14.9645C5.25477 13.9362 6.85395 13.1921 8.63535 13.0481C10.4027 12.9053 12.1854 12.9398 13.9604 12.9015C16.5701 12.8467 18.7605 11.8515 20.5534 9.96566C20.6642 9.8497 20.8286 9.65729 20.7968 9.55408C20.6044 8.93097 20.3635 8.32315 20.0998 7.6083C19.9239 7.84276 19.8615 7.92687 19.7978 8.00969C18.2801 10.0052 16.2987 11.0819 13.7604 11.0679C12.6174 11.0615 11.4744 11.0781 10.3314 11.0793C7.86188 11.0806 5.56314 11.7037 3.46318 13.0073C3.2644 13.1296 3.01592 13.4112 3.03376 13.596C3.08218 14.1108 3.25803 14.6128 3.40329 15.2041ZM21.2134 12.1484C21.1523 12.1281 21.0924 12.1077 21.0312 12.0873C20.9127 12.1739 20.7917 12.258 20.6757 12.3498C18.5872 13.991 16.2209 14.7951 13.559 14.7454C12.3332 14.7224 11.1061 14.7339 9.88029 14.7696C7.78415 14.832 5.93395 15.5481 4.27106 16.9371C4.65588 17.4251 5.01394 17.8787 5.40386 18.3744C7.15085 16.8479 9.16544 16.4898 11.3215 16.5777C12.2287 16.6147 13.1385 16.5599 14.0484 16.5561C16.3229 16.5471 18.4228 15.9215 20.3686 14.7607C20.5559 14.6485 20.7942 14.479 20.8375 14.2956C21.0019 13.5883 21.0949 12.8646 21.2147 12.1472L21.2134 12.1484ZM2.83498 11.1635C3.15099 11.0246 3.32684 10.9596 3.49122 10.8742C5.65106 9.74649 7.95235 9.22278 10.3849 9.24571C11.5903 9.25718 12.797 9.27502 13.9999 9.2266C16.0897 9.14122 17.6443 8.13839 18.6611 6.32131C18.7478 6.16713 18.7414 5.8422 18.6356 5.72369C18.2929 5.33632 17.8838 5.00756 17.4646 4.62402C17.3754 4.79731 17.3232 4.88651 17.2837 4.9808C16.6262 6.53538 15.4959 7.38786 13.7693 7.38658C12.5855 7.38658 11.4017 7.40569 10.218 7.41589C8.04028 7.43373 5.93395 7.82492 3.92191 8.6672C3.70402 8.75895 3.41731 8.9144 3.3536 9.10427C3.14335 9.73502 3.02102 10.3964 2.83625 11.1647L2.83498 11.1635ZM19.2677 17.4952C18.0495 17.7666 16.8542 18.1693 15.6322 18.275C13.7642 18.4369 11.8783 18.3897 10.0001 18.4369C8.85835 18.4662 7.83258 18.8128 6.91639 19.5442C10.534 22.2354 16.4643 21.5422 19.2677 17.4952ZM4.90181 6.28436C5.98747 6.08557 7.03617 5.7925 8.09889 5.72242C9.99497 5.59754 11.9 5.60646 13.8024 5.56441C14.7568 5.54275 15.5188 4.9018 15.6297 4.04423C15.6717 3.71803 15.5698 3.55747 15.2614 3.4275C11.7878 1.96848 7.18144 3.22107 4.90181 6.28436Z" fill="white"/>
<path d="M3.40315 15.2042C3.25661 14.6129 3.08077 14.1096 3.03362 13.5961C3.01578 13.4113 3.26553 13.131 3.46304 13.0074C5.56427 11.7038 7.86174 11.082 10.3312 11.0794C11.4742 11.0794 12.6172 11.0616 13.7602 11.068C16.2985 11.082 18.28 10.0053 19.7976 8.00979C19.8613 7.92696 19.9238 7.84286 20.0996 7.6084C20.3621 8.32325 20.6042 8.93107 20.7966 9.55418C20.8285 9.65866 20.6641 9.8498 20.5532 9.96576C18.7604 11.8504 16.5699 12.8456 13.9603 12.9016C12.184 12.9386 10.4026 12.9042 8.63521 13.0482C6.85381 13.1921 5.25591 13.9363 3.79562 14.9646C3.71024 15.0245 3.6185 15.0742 3.40315 15.2042Z" fill="#1F1F1F"/>
<path d="M21.2136 12.1484C21.0938 12.8658 20.9995 13.5896 20.8364 14.2968C20.7943 14.4803 20.5548 14.6497 20.3675 14.7619C18.423 15.9227 16.323 16.5484 14.0472 16.5573C13.1387 16.5611 12.2276 16.6159 11.3203 16.5789C9.16428 16.491 7.1497 16.8491 5.4027 18.3756C5.01151 17.88 4.65472 17.4263 4.2699 16.9383C5.93279 15.5494 7.783 14.8332 9.87913 14.7708C11.105 14.7351 12.3321 14.7236 13.5579 14.7466C16.2198 14.795 18.5861 13.991 20.6746 12.351C20.7905 12.2605 20.9116 12.1764 21.0301 12.0885C21.0912 12.1089 21.1511 12.1293 21.2123 12.1497L21.2136 12.1484Z" fill="#1F1F1F"/>
<path d="M2.83367 11.1634C3.01844 10.3937 3.14077 9.73369 3.35102 9.10294C3.41473 8.91307 3.70143 8.75634 3.91933 8.66586C5.93137 7.82359 8.0377 7.4324 10.2154 7.41456C11.3992 7.40437 12.5829 7.38397 13.7667 7.38525C15.4933 7.38652 16.6248 6.53405 17.2811 4.97947C17.3206 4.88517 17.3741 4.79598 17.462 4.62268C17.8813 5.00623 18.2903 5.33499 18.6331 5.72236C18.7388 5.84214 18.7452 6.16707 18.6585 6.31998C17.6417 8.13705 16.0871 9.13989 13.9973 9.22526C12.7945 9.27496 11.5877 9.25585 10.3823 9.24438C7.9485 9.22144 5.64848 9.74515 3.48863 10.8729C3.32426 10.9582 3.14841 11.0232 2.8324 11.1621L2.83367 11.1634Z" fill="#1F1F1F"/>
<path d="M19.2678 17.4952C16.4644 21.5422 10.5341 22.2354 6.9165 19.5442C7.83396 18.8115 8.85846 18.4662 10.0002 18.4369C11.8784 18.3885 13.7643 18.4369 15.6324 18.2751C16.8531 18.1693 18.0496 17.7667 19.2678 17.4952Z" fill="#1F1F1F"/>
<path d="M4.90173 6.28442C7.18136 3.22113 11.7878 1.96855 15.2614 3.42756C15.5697 3.55754 15.6717 3.71682 15.6296 4.0443C15.5188 4.90187 14.7568 5.54282 13.8024 5.56448C11.9012 5.60653 9.9949 5.59761 8.09882 5.72248C7.0361 5.79257 5.98739 6.08564 4.90173 6.28442Z" fill="#1F1F1F"/>
</svg>
