<svg width="24" height="24" viewBox="0 0 24 24" fill="none" xmlns="http://www.w3.org/2000/svg">
<path d="M21.8452 2L12.6884 8.77447L14.3914 4.78164L21.8452 2Z" fill="#E17726"/>
<path d="M1.51599 2.00745L8.94983 4.78242L10.567 8.82777L1.51599 2.00745Z" fill="#E27625"/>
<path d="M18.16 16.4083L22.2071 16.4858L20.7933 21.2906L15.8544 19.931L18.16 16.4083Z" fill="#E27625"/>
<path d="M5.17955 16.4083L7.47688 19.931L2.54711 21.2906L1.14087 16.4858L5.17955 16.4083Z" fill="#E27625"/>
<path d="M10.3469 7.79749L10.5128 13.139L5.56384 12.914L6.97175 10.79L6.98926 10.77L10.3469 7.79749Z" fill="#E27625"/>
<path d="M12.9417 7.73755L16.3511 10.7701L16.3686 10.7901L17.7765 12.9141L12.8284 13.1391L12.9417 7.73755Z" fill="#E27625"/>
<path d="M7.62197 16.4242L10.3244 18.5298L7.18518 20.0453L7.62197 16.4242Z" fill="#E27625"/>
<path d="M15.7184 16.4242L16.1461 20.0453L13.016 18.5298L15.7184 16.4242Z" fill="#E27625"/>
<path d="M13.0852 18.3314L16.262 19.8694L13.3069 21.2739L13.3378 20.3453L13.0852 18.3314Z" fill="#D5BFB2"/>
<path d="M10.2535 18.3323L10.0117 20.3304L10.0309 21.2723L7.06921 19.8694L10.2535 18.3323Z" fill="#D5BFB2"/>
<path d="M9.33663 13.8359L10.1669 15.5806L7.34021 14.7529L9.33663 13.8359Z" fill="#233447"/>
<path d="M14.003 13.8368L16.0086 14.7529L13.1736 15.5806L14.003 13.8368Z" fill="#233447"/>
<path d="M7.83788 16.4067L7.38107 20.1612L4.93286 16.4884L7.83788 16.4067Z" fill="#CC6228"/>
<path d="M15.5026 16.4067L18.4076 16.4884L15.9502 20.1612L15.5026 16.4067Z" fill="#CC6228"/>
<path d="M17.8482 12.7014L15.7334 14.8562L14.103 14.1118L13.3227 15.7523L12.8109 12.9306L17.8482 12.7014Z" fill="#CC6228"/>
<path d="M5.49133 12.7014L10.5286 12.9306L10.0168 15.7523L9.23659 14.1118L7.61528 14.8562L5.49133 12.7014Z" fill="#CC6228"/>
<path d="M5.34875 12.2596L7.74112 14.687L7.82364 17.0836L5.34875 12.2596Z" fill="#E27525"/>
<path d="M17.9942 12.2546L15.5143 17.0877L15.6076 14.687L17.9942 12.2546Z" fill="#E27525"/>
<path d="M10.4119 12.4072L10.5078 13.0132L10.7462 14.5228L10.5928 19.16L9.87012 15.4348V15.3964L10.4119 12.4072Z" fill="#E27525"/>
<path d="M12.9268 12.3989L13.4703 15.3965V15.4348L12.7451 19.1692L12.7168 18.2348L12.6034 14.4954L12.9268 12.3989Z" fill="#E27525"/>
<path d="M15.8202 14.5903L15.7393 16.6726L13.2161 18.639L12.7059 18.2781L13.2778 15.3331L15.8202 14.5903Z" fill="#F5841F"/>
<path d="M7.52856 14.5903L10.0626 15.3331L10.6345 18.2781L10.1243 18.639L7.60025 16.6726L7.52856 14.5903Z" fill="#F5841F"/>
<path d="M6.58667 19.4093L9.81511 20.9389L9.80177 20.2862L10.0719 20.0487H13.267L13.547 20.2854L13.5262 20.9381L16.7346 19.4135L15.1733 20.703L13.2861 22.0001H10.046L8.15963 20.698L6.58667 19.4093Z" fill="#C0AC9D"/>
<path d="M12.8543 18.1272L13.3102 18.4498L13.5778 20.5846L13.191 20.2578H10.1502L9.77087 20.5912L10.0293 18.4498L10.4861 18.1272H12.8543Z" fill="#161616"/>
<path d="M21.2409 2.18677L22.3395 5.4844L21.6535 8.8187L22.142 9.19548L21.4809 9.70063L21.9778 10.0841L21.3192 10.6834L21.7235 10.976L20.6515 12.2289L16.2527 10.9485L16.2144 10.9276L13.0443 8.25354L21.2409 2.18677Z" fill="#763E1A"/>
<path d="M2.09949 2.18677L10.2952 8.25354L7.12595 10.9276L7.08761 10.9485L2.68883 12.2289L1.61601 10.976L2.0203 10.6842L1.36261 10.0841L1.85858 9.70063L1.18672 9.19465L1.69437 8.81704L1 5.4844L2.09949 2.18677Z" fill="#763E1A"/>
<path d="M16.0369 10.6683L20.6983 12.0246L22.2121 16.6918H18.2176L15.4651 16.7268L17.4665 12.8248L16.0369 10.6683Z" fill="#F5841F"/>
<path d="M7.30266 10.6683L5.87308 12.8248L7.87533 16.7268L5.12369 16.6918H1.13586L2.64214 12.0246L7.30266 10.6683Z" fill="#F5841F"/>
<path d="M14.6198 4.76001L13.3161 8.28104L13.0393 13.0374L12.9335 14.5279L12.9251 18.3365H10.4152L10.4069 14.5354L10.301 13.0358L10.0243 8.28104L8.72058 4.76001H14.6198Z" fill="#F5841F"/>
</svg>
