<svg width="24" height="24" viewBox="0 0 24 24" fill="none" xmlns="http://www.w3.org/2000/svg">
<path d="M12 23C18.0751 23 23 18.0751 23 12C23 5.92487 18.0751 1 12 1C5.92487 1 1 5.92487 1 12C1 18.0751 5.92487 23 12 23Z" fill="url(#paint0_linear_265_2543)"/>
<mask id="mask0_265_2543" style="mask-type:luminance" maskUnits="userSpaceOnUse" x="0" y="0" width="24" height="24">
<path d="M12 24C18.6274 24 24 18.6274 24 12C24 5.37258 18.6274 0 12 0C5.37258 0 0 5.37258 0 12C0 18.6274 5.37258 24 12 24Z" fill="white"/>
</mask>
<g mask="url(#mask0_265_2543)">
<path d="M12.8756 16.6891C12.5885 16.7573 12.2949 16.7927 11.9999 16.7927C9.90643 16.7927 8.12623 15.1986 7.99776 12.8338C7.98203 12.5388 8.14851 11.7706 8.21405 11.4901L4.97743 10.1136C4.64709 10.9487 4.46094 12.0472 4.46094 13.0003C4.46094 17.0575 7.93877 20.3466 11.996 20.3466C12.9294 20.3466 13.8536 20.1696 14.7201 19.8248L12.8782 16.6891H12.8756Z" fill="url(#paint1_linear_265_2543)"/>
<path d="M12 5.26849C10.9447 5.26849 9.90123 5.49397 8.94165 5.93443L10.7651 9.0334C11.1636 8.89576 11.5831 8.82628 12.0052 8.82628C13.8575 8.82628 15.8226 10.3758 16.0113 12.291L10.7415 12.3133L18.9583 15.795C19.3869 14.8656 19.5272 13.771 19.5272 12.6764C19.5246 8.61129 16.0546 5.26587 11.9987 5.26587L12 5.26849Z" fill="url(#paint2_linear_265_2543)"/>
<path d="M12.8756 15.8842C12.5885 15.9523 12.2949 15.9864 11.9999 15.9877C9.90643 15.9877 8.12623 14.3937 7.99776 12.0288C7.98203 11.7325 8.14851 10.9657 8.21405 10.6851L4.97743 9.30737C4.64709 10.1437 4.46094 11.2423 4.46094 12.2005C4.46094 16.2578 7.93877 19.5468 11.996 19.5468C12.9281 19.5495 13.8522 19.3738 14.7201 19.0303L12.8782 15.8842H12.8756Z" fill="white"/>
<path d="M12 4.45969C10.9447 4.45969 9.90123 4.68516 8.94165 5.12562L10.7651 8.2246C11.1636 8.08695 11.5831 8.01747 12.0052 8.01747C13.8575 8.01747 15.8226 9.56696 16.0113 11.4822L10.7415 11.5045L18.9517 14.9797C19.3804 14.0502 19.5206 12.9543 19.5206 11.861C19.5246 7.80773 16.0546 4.45837 11.9987 4.45837L12 4.45969Z" fill="white"/>
</g>
<defs>
<linearGradient id="paint0_linear_265_2543" x1="19.1463" y1="1.48307" x2="-0.866185" y2="30.9334" gradientUnits="userSpaceOnUse">
<stop stop-color="#1ABC9C"/>
<stop offset="1" stop-color="#1A5DAF"/>
</linearGradient>
<linearGradient id="paint1_linear_265_2543" x1="11.9816" y1="0.135059" x2="8.61257" y2="22.6236" gradientUnits="userSpaceOnUse">
<stop stop-color="#1ABC9C"/>
<stop offset="1" stop-color="#1A5DAF"/>
</linearGradient>
<linearGradient id="paint2_linear_265_2543" x1="15.5892" y1="0.6764" x2="12.2176" y2="23.1649" gradientUnits="userSpaceOnUse">
<stop stop-color="#1ABC9C"/>
<stop offset="1" stop-color="#1A5DAF"/>
</linearGradient>
</defs>
</svg>
