<svg width="24" height="24" viewBox="0 0 24 24" fill="none" xmlns="http://www.w3.org/2000/svg">
<path d="M12 23C18.0751 23 23 18.0751 23 12C23 5.92487 18.0751 1 12 1C5.92487 1 1 5.92487 1 12C1 18.0751 5.92487 23 12 23Z" fill="#FD6263"/>
<path d="M11.7445 12.1357C11.7445 13.9667 11.7039 15.7976 11.7639 17.6269C11.7903 18.4657 11.4308 18.5415 10.7735 18.3987C9.08346 18.0322 7.62608 16.4462 7.57321 14.7086C7.50096 12.4159 7.55206 10.1179 7.52915 7.82168C7.52386 7.38464 7.73181 7.21194 8.09836 7.0833C9.10989 6.73085 10.125 6.38192 11.1189 5.98012C11.6898 5.74927 11.7533 5.98717 11.7498 6.46651C11.7374 8.35565 11.7445 10.2448 11.7445 12.1339V12.1357Z" fill="#FDFBFB"/>
<path d="M12.4794 9.43412C12.4794 8.44549 12.4953 7.45687 12.4724 6.47C12.4618 5.97657 12.5464 5.76863 13.1015 5.98715C14.1236 6.39247 15.1722 6.73435 16.2031 7.11676C16.4057 7.19254 16.6066 7.26302 16.6807 7.55556C17.2745 9.90993 15.9546 12.3753 13.6989 13.0785C12.6239 13.4133 12.4812 13.3128 12.4794 12.2238C12.4794 11.2933 12.4794 10.3646 12.4794 9.43412Z" fill="#FDFBFB"/>
</svg>
