<svg width="24" height="24" viewBox="0 0 24 24" fill="none" xmlns="http://www.w3.org/2000/svg">
<path d="M10.7271 1.00079H13.1591C13.2198 1.12605 13.3411 1.07169 13.4357 1.09139C13.9154 1.19144 14.4031 1.26077 14.8742 1.39076C15.8338 1.65546 16.7334 2.05331 17.6032 2.55278C18.6116 3.13183 19.4782 3.86292 20.2439 4.71533C21.2019 5.78125 21.8692 7.01181 22.3892 8.35819C23.0328 10.026 23.0848 11.7371 22.906 13.4475C22.6744 15.6604 21.6983 17.5701 20.2298 19.2568C19.1032 20.5504 17.756 21.5194 16.1954 22.1434C13.1615 23.3558 10.126 23.2991 7.1615 21.859C4.47347 20.5536 2.64338 18.4588 1.57589 15.6801C1.32064 15.0152 1.22295 14.3062 1 13.6326V10.3372C1.1489 10.2285 1.10557 10.0528 1.13393 9.9094C1.63892 7.36712 2.89706 5.26287 4.86423 3.59664C6.40362 2.2928 8.17542 1.45457 10.1836 1.14102C10.3632 1.11266 10.579 1.16623 10.7279 1L10.7271 1.00079ZM11.9034 5.90099C13.2623 5.90099 14.6221 5.89784 15.9811 5.90257C16.438 5.90415 16.6216 6.09243 16.6397 6.54228C16.6444 6.65966 16.6413 6.77783 16.6413 6.89522C16.6405 9.40519 16.6452 11.9152 16.6302 14.4244C16.6279 14.7702 16.7248 14.9191 17.0738 15.0089C18.3398 15.3335 19.5964 15.7006 20.7639 16.3064C21.0184 16.4388 21.1271 16.3663 21.2295 16.1245C21.6124 15.2169 21.9086 14.281 22.0276 13.3057C22.3868 10.3608 21.636 7.71061 19.6885 5.47715C17.251 2.68277 14.1439 1.51838 10.4593 2.03834C7.75709 2.41964 5.52757 3.72348 3.91964 5.90651C1.60662 9.04674 1.22847 12.4785 2.73004 16.1008C2.84979 16.3892 2.97978 16.4301 3.2563 16.2946C4.38524 15.7424 5.56302 15.3107 6.78492 15.0168C7.11344 14.938 7.21507 14.8041 7.21271 14.4661C7.19695 11.8907 7.20247 9.31617 7.20247 6.74081C7.20247 6.05541 7.35136 5.90257 8.02258 5.90178C9.31617 5.90099 10.6106 5.90178 11.9041 5.90178L11.9034 5.90099ZM15.9858 16.0693C15.1287 15.7479 14.2455 15.6644 13.3616 15.5966C12.3957 15.5226 11.4291 15.5375 10.4624 15.5935C10.3789 15.5982 10.2655 15.6455 10.2135 15.5462C10.1631 15.4501 10.2623 15.38 10.3096 15.3083C10.4459 15.1011 10.609 14.9089 10.7264 14.6914C10.8839 14.4023 11.1029 14.3172 11.4259 14.3212C12.2492 14.3322 13.0733 14.3093 13.8918 14.4165C14.188 14.4551 14.2755 14.3598 14.2715 14.062C14.2558 12.8724 14.2644 11.6828 14.2621 10.4932C14.2613 10.0953 14.1904 9.71402 13.9753 9.36974C13.3411 8.35504 12.3122 7.93513 11.2219 8.24947C10.271 8.52363 9.57457 9.50052 9.57221 10.609C9.56512 14.2038 9.57142 17.7986 9.56039 21.3934C9.55961 21.688 9.6573 21.8022 9.93776 21.8582C11.2329 22.115 12.5218 22.1757 13.828 21.9007C14.1983 21.8227 14.2786 21.6872 14.2747 21.3414C14.2566 19.9036 14.2731 18.4658 14.2621 17.0273C14.2597 16.7476 14.3464 16.6035 14.6253 16.5239C15.0853 16.3939 15.5328 16.2222 15.9858 16.0677V16.0693ZM16.6318 18.5163C16.6318 19.2088 16.6373 19.9012 16.6287 20.5929C16.6255 20.8537 16.683 20.927 16.9359 20.7836C18.2634 20.0312 19.3608 19.0268 20.2621 17.8001C20.4157 17.5914 20.4133 17.4827 20.1573 17.37C19.1158 16.9139 18.0578 16.5089 16.9595 16.208C16.6673 16.1276 16.6255 16.2285 16.6287 16.4782C16.6373 17.1573 16.6318 17.8364 16.631 18.5163H16.6318ZM7.20562 20.86C7.20562 19.3088 7.20325 17.8348 7.20719 16.3608C7.20719 16.1016 7.06854 16.1386 6.89994 16.1828C5.8104 16.4656 4.7626 16.8626 3.73529 17.3188C3.52258 17.4133 3.50446 17.5016 3.63366 17.6922C3.99448 18.2248 4.41912 18.7022 4.87369 19.1528C5.54333 19.8154 6.2823 20.3865 7.20483 20.86H7.20562Z" fill="url(#paint0_linear_265_2424)"/>
<path d="M11.9033 5.90029C10.6097 5.90029 9.31536 5.8995 8.02176 5.90029C7.35055 5.90029 7.20086 6.05391 7.20165 6.73931C7.20165 9.31467 7.19613 11.89 7.21189 14.4646C7.21425 14.8026 7.11263 14.9365 6.78411 15.0153C5.56221 15.3099 4.38442 15.7409 3.25548 16.2931C2.97896 16.4286 2.84897 16.3877 2.72923 16.0993C1.22686 12.4777 1.60501 9.04524 3.91883 5.90501C5.52676 3.72198 7.75627 2.41815 10.4585 2.03684C14.1431 1.51689 17.251 2.68128 19.6877 5.47565C21.636 7.70911 22.386 10.3593 22.0267 13.3042C21.9078 14.2795 21.6116 15.2154 21.2287 16.123C21.1271 16.3648 21.0183 16.4373 20.7631 16.305C19.5955 15.6991 18.339 15.3328 17.073 15.0074C16.724 14.9176 16.6279 14.7687 16.6294 14.4229C16.6444 11.9129 16.6389 9.4037 16.6405 6.89372C16.6405 6.77634 16.6436 6.65816 16.6389 6.54078C16.6208 6.09094 16.4372 5.90344 15.9803 5.90107C14.6213 5.89556 13.2615 5.8995 11.9025 5.89871L11.9033 5.90029Z" fill="#150C39"/>
<path d="M15.9851 16.0685C15.5321 16.2229 15.0839 16.3947 14.6246 16.5247C14.3465 16.6035 14.259 16.7476 14.2614 17.0281C14.2724 18.4658 14.2566 19.9044 14.274 21.3422C14.2779 21.688 14.1976 21.8235 13.8273 21.9015C12.5219 22.1765 11.233 22.115 9.93706 21.859C9.6566 21.803 9.55891 21.6888 9.5597 21.3942C9.57073 17.7994 9.56443 14.2046 9.57152 10.6098C9.57388 9.50131 10.2703 8.52441 11.2212 8.25026C12.3115 7.93592 13.3404 8.35503 13.9746 9.37053C14.1897 9.7148 14.2606 10.0961 14.2614 10.494C14.2637 11.6836 14.2551 12.8732 14.2708 14.0628C14.2748 14.3613 14.1873 14.4559 13.8911 14.4173C13.0726 14.3101 12.2485 14.3322 11.4252 14.3219C11.1015 14.318 10.8824 14.4031 10.7257 14.6922C10.6075 14.9089 10.4452 15.1019 10.3089 15.3091C10.2616 15.3808 10.1624 15.4509 10.2128 15.547C10.264 15.6455 10.3774 15.599 10.4617 15.5943C11.4284 15.5383 12.395 15.5234 13.3609 15.5974C14.2456 15.6652 15.128 15.7487 15.9851 16.0701V16.0685Z" fill="#150C39"/>
<path d="M16.6317 18.5155C16.6317 17.8364 16.638 17.1566 16.6293 16.4775C16.6262 16.2269 16.6679 16.1269 16.9602 16.2072C18.0584 16.509 19.1164 16.9131 20.1579 17.3693C20.414 17.4811 20.4155 17.5906 20.2627 17.7994C19.3607 19.026 18.2632 20.0305 16.9366 20.7829C16.6837 20.9262 16.6262 20.853 16.6293 20.5922C16.638 19.8997 16.6325 19.2072 16.6325 18.5155H16.6317Z" fill="#150C39"/>
<path d="M13.6525 14.7087C12.73 14.236 11.991 13.6648 11.3214 13.0015C10.8668 12.5516 10.443 12.0734 10.0814 11.5409C9.95217 11.3502 9.97029 11.262 10.183 11.1674C11.2103 10.7105 12.2581 10.3142 13.3476 10.0314C13.5162 9.9873 13.6557 9.95027 13.6549 10.2095C13.651 11.6835 13.6533 13.1575 13.6533 14.7087H13.6525Z" fill="#150C39"/>
<defs>
<linearGradient id="paint0_linear_265_2424" x1="11.9979" y1="23.0013" x2="11.9979" y2="1.00079" gradientUnits="userSpaceOnUse">
<stop stop-color="#8D29C0"/>
<stop offset="0.03" stop-color="#8E29BE"/>
<stop offset="0.67" stop-color="#BD339B"/>
<stop offset="1" stop-color="#CF388E"/>
</linearGradient>
</defs>
</svg>
