<svg width="24" height="24" viewBox="0 0 24 24" fill="none" xmlns="http://www.w3.org/2000/svg">
<path d="M12 23C18.0751 23 23 18.0751 23 12C23 5.92487 18.0751 1 12 1C5.92487 1 1 5.92487 1 12C1 18.0751 5.92487 23 12 23Z" fill="url(#paint0_linear_265_2468)"/>
<path d="M12.9331 7.72272C13.1475 7.61436 13.3756 7.59497 13.6129 7.59497C15.2291 7.59953 16.8442 7.59497 18.4605 7.59611C18.9098 7.59611 19.0376 7.7193 19.0136 8.16071C18.9817 8.74242 18.8277 9.30702 18.7353 9.88075C18.6578 10.3598 18.562 10.8366 18.4753 11.3145C18.3806 11.8414 18.0749 12.0639 17.5354 11.9988C17.4989 11.9943 17.4613 12.0068 17.4248 12.0114C15.6226 12.008 13.8205 12.0046 12.0183 12.0011L12.0263 12.0091C12.0548 11.8164 12.0788 11.6213 12.1118 11.4297C12.2179 10.8172 12.3457 10.2092 12.4301 9.59445C12.4905 9.15532 12.5898 8.72531 12.6582 8.2896C12.6935 8.06718 12.778 7.88126 12.9331 7.72272Z" fill="#FCFDFD"/>
<path d="M12.0182 12.0022C11.7935 13.2477 11.5711 14.4933 11.343 15.7388C11.2529 16.2316 11.0464 16.4038 10.5503 16.4049C8.87813 16.4061 7.20714 16.4049 5.53501 16.4049C5.09474 16.4049 4.92479 16.2008 5.00121 15.7628C5.17914 14.7271 5.35936 13.6914 5.54186 12.6569C5.616 12.2406 5.84754 12.0079 6.2228 12.0068C8.15727 12.0033 10.0917 12.009 12.0273 12.0113L12.0194 12.0033L12.0182 12.0022Z" fill="#FCFDFD"/>
<defs>
<linearGradient id="paint0_linear_265_2468" x1="19.7789" y1="4.22135" x2="4.22178" y2="19.7785" gradientUnits="userSpaceOnUse">
<stop stop-color="#24E6E8"/>
<stop offset="0.13" stop-color="#1CB8E7"/>
<stop offset="0.27" stop-color="#158CE7"/>
<stop offset="0.42" stop-color="#0F68E7"/>
<stop offset="0.56" stop-color="#0A4CE7"/>
<stop offset="0.71" stop-color="#0738E7"/>
<stop offset="0.85" stop-color="#052CE7"/>
<stop offset="1" stop-color="#0528E7"/>
</linearGradient>
</defs>
</svg>
