<svg width="20" height="20" viewBox="0 0 20 20" fill="none" xmlns="http://www.w3.org/2000/svg">
<path d="M19.0483 5.93626C19.574 3.70898 18.1946 1.47726 15.9673 0.951579C13.74 0.425894 11.5083 1.80531 10.9826 4.03259C10.4569 6.25986 11.8363 8.49158 14.0636 9.01727C16.2909 9.54295 18.5226 8.16354 19.0483 5.93626Z" fill="url(#paint0_linear_333_2309)"/>
<path d="M4.65024 19.7425C6.9343 19.6004 8.6707 17.6336 8.5286 15.3496C8.3865 13.0655 6.41971 11.3291 4.13565 11.4712C1.8516 11.6133 0.115195 13.5801 0.257295 15.8642C0.399395 18.1482 2.36619 19.8846 4.65024 19.7425Z" fill="url(#paint1_linear_333_2309)"/>
<path d="M15.0163 11.4634C8.55637 11.3695 8.5373 4.98447 8.5373 4.98447C8.5373 2.69545 6.6813 0.84082 4.39365 0.84082C2.106 0.84082 0.25 2.69545 0.25 4.98447C0.25 7.27349 2.10463 9.12812 4.39365 9.12812C10.6316 9.71501 10.8726 15.6084 10.8726 15.6084C10.8726 17.8975 12.7272 19.7521 15.0163 19.7521C17.3053 19.7521 19.1599 17.8975 19.1599 15.6084C19.1599 13.3194 17.3053 11.4648 15.0163 11.4648V11.4634Z" fill="url(#paint2_linear_333_2309)"/>
<defs>
<linearGradient id="paint0_linear_333_2309" x1="19.1208" y1="5.629" x2="9.48133" y2="3.35387" gradientUnits="userSpaceOnUse">
<stop stop-color="#B2D2EF"/>
<stop offset="1" stop-color="#31C28E"/>
</linearGradient>
<linearGradient id="paint1_linear_333_2309" x1="4.96534" y1="19.7229" x2="4.35034" y2="9.8377" gradientUnits="userSpaceOnUse">
<stop stop-color="#B2D2EF"/>
<stop offset="1" stop-color="#31C28E"/>
</linearGradient>
<linearGradient id="paint2_linear_333_2309" x1="10.4253" y1="19.7521" x2="10.4253" y2="-2.84919" gradientUnits="userSpaceOnUse">
<stop stop-color="#B2D2EF"/>
<stop offset="1" stop-color="#31C28E"/>
</linearGradient>
</defs>
</svg>
