<svg width="32" height="32" viewBox="0 0 32 32" fill="none" xmlns="http://www.w3.org/2000/svg">
<path d="M24 24C28.4183 19.5817 28.4183 12.4183 24 8C19.5817 3.58172 12.4183 3.58172 8 8C3.58172 12.4183 3.58172 19.5817 8 24C12.4183 28.4183 19.5817 28.4183 24 24Z" fill="#101419"/>
<path d="M26.6437 12.1558C26.5781 12.1428 26.5034 12.1371 26.4183 12.138C24.4451 12.1595 22.4714 12.1361 20.4982 12.1562C20.06 12.1606 19.74 12.028 19.4742 11.6929C19.273 11.4394 19.0572 11.1955 18.8298 10.9651C18.5113 10.6425 18.1494 10.6381 17.8246 10.9506C17.6424 11.1259 17.472 11.3169 17.318 11.5174C16.965 11.9769 16.5251 12.1618 15.9311 12.1581C12.4354 12.1367 8.93941 12.1461 5.44378 12.1533C5.41695 12.1533 5.38706 12.1551 5.35563 12.1579C5.02625 13.0706 4.81087 14.0377 4.72656 15.0421C4.81221 15.0421 4.89308 15.0421 4.97375 15.0421C7.89166 15.0423 10.8096 15.0573 13.7273 15.0379C15.6484 15.0253 15.0142 15.3094 16.3333 13.9465C16.3626 13.916 16.3919 13.8855 16.4229 13.8568C16.7897 13.519 17.153 13.532 17.4902 13.9024C17.7083 14.1419 17.9242 14.3841 18.1293 14.6348C18.3697 14.9285 18.6612 15.0508 19.0488 15.049C21.6989 15.0371 24.3489 15.0427 26.9989 15.0425C27.0834 15.0425 27.1679 15.0425 27.2737 15.0425C27.1894 14.0369 26.9738 13.0689 26.6437 12.1555V12.1558Z" fill="white"/>
<path d="M26.8499 18.134C23.622 18.1344 20.3938 18.1365 17.1659 18.1348C15.4657 18.1338 15.9459 18.2559 14.845 17.0777C14.3788 16.5787 14.0272 16.5616 13.5806 17.0627C13.4681 17.189 13.3547 17.3153 13.2533 17.4502C12.866 17.9654 12.3634 18.1545 11.7129 18.1461C9.51432 18.1177 7.31516 18.1346 5.116 18.1342C5.0451 18.1342 4.97401 18.1342 4.88721 18.1342C5.08361 19.1632 5.41951 20.1427 5.87441 21.0525C5.90775 21.0544 5.94262 21.0552 5.97941 21.0544C7.21935 21.031 8.46025 21.055 9.70057 21.0431C11.4387 21.0266 10.9131 21.247 12.0894 20.0293C12.1483 19.9685 12.2031 19.9036 12.2653 19.8467C12.6041 19.5365 12.9494 19.5342 13.2698 19.8614C13.5258 20.123 13.736 20.4342 14.0127 20.6691C14.2135 20.8396 14.489 21.0257 14.7324 21.0272C18.5241 21.05 22.3159 21.0468 26.1078 21.0333C26.1168 21.0333 26.1264 21.0326 26.136 21.0314C26.5855 20.1276 26.9177 19.1549 27.1126 18.1338C27.0224 18.1338 26.9361 18.1338 26.8497 18.1338L26.8499 18.134Z" fill="white"/>
<path d="M7.06238 9.06252C11.0445 9.06328 15.0268 9.06788 19.0088 9.05083C19.2324 9.04987 19.4915 8.91191 19.6703 8.76168C19.9814 8.50032 20.2346 8.17113 20.5273 7.886C20.8644 7.55777 21.2361 7.56505 21.5642 7.90344C21.8388 8.18665 22.08 8.50377 22.3678 8.77184C22.5121 8.90616 22.7246 9.03627 22.9114 9.04412C23.57 9.0721 24.2303 9.06003 24.9339 9.05734C22.8639 6.39735 19.6319 4.68604 16.0001 4.68604C12.3661 4.68604 9.1322 6.39965 7.06238 9.06252Z" fill="white"/>
<path d="M12.5239 23.8968C11.5639 23.9115 10.894 23.6421 10.3376 22.8808C9.88001 22.255 9.48644 22.2899 8.97329 22.8797C8.65579 23.2445 8.37239 23.6592 7.83606 23.8324C9.89496 25.9781 12.7916 27.3138 16.0002 27.3138C19.1885 27.3138 22.0684 25.995 24.1249 23.8732H23.8497C20.0743 23.8732 16.2983 23.8391 12.5239 23.897V23.8968Z" fill="white"/>
</svg>
