<svg width="866" height="12" viewBox="0 0 866 12" fill="none" xmlns="http://www.w3.org/2000/svg">
<path d="M22.4187 0L33.7357 11.317H225.246L222.565 8.63661H118.618L113.706 3.72149H83.4733L79.8265 0.0747888L22.4187 0Z" fill="#39CBA4"/>
<path d="M23.032 0.254282L79.7218 0.329071L83.2967 3.90397L83.3715 3.97876H113.601L118.441 8.81909L118.516 8.89388H222.461L224.633 11.0657H33.8404L23.032 0.254282ZM22.4187 0L33.7357 11.317H225.246L222.565 8.63661H118.618L113.703 3.72149H83.4733L79.8265 0.0747888L22.4187 0Z" fill="#39CBA4"/>
<path d="M19.0322 0L30.5407 11.7658H22.9481L11.4067 0.224366L19.0322 0Z" fill="#39CBA4"/>
<path d="M18.9275 0.257273L29.9394 11.5115H23.0528L12.0021 0.460699L18.9275 0.257273ZM19.0322 0L11.4067 0.224366L22.9481 11.7658H30.5437L19.0322 0Z" fill="#39CBA4"/>
<path d="M7.62552 0L19.137 11.7658H11.5415L6.10352e-05 0.224366L7.62552 0Z" fill="#39CBA4"/>
<path d="M7.52082 0.257273L18.5327 11.5115H11.6462L0.59538 0.460699L7.52082 0.257273ZM7.62552 0L6.10352e-05 0.224366L11.5415 11.7658H19.137L7.62552 0Z" fill="#39CBA4"/>
<path d="M866 10.8203H222.257V11.4186H866V10.8203Z" fill="#39CBA4"/>
</svg>
