<svg width="380" height="64" viewBox="0 0 380 64" fill="none" xmlns="http://www.w3.org/2000/svg">
<path d="M51.1761 38.3977H44.7784C41.2456 38.3977 38.3807 35.5315 38.3807 31.9971C38.3807 28.4628 41.2456 25.5965 44.7784 25.5965H51.1761C58.2417 25.5965 63.9687 19.867 63.9687 12.7983C63.9687 5.72957 58.2417 0 51.1761 0C44.1106 0 38.3835 5.72957 38.3835 12.8012V19.2017C38.3835 22.7361 35.5186 25.6023 31.9858 25.6023C28.453 25.6023 25.5881 22.7361 25.5881 19.2017V12.8012C25.5881 5.72957 19.861 0 12.7926 0C5.72414 0 0 5.72957 0 12.8012C0 19.8727 5.72703 25.5994 12.7926 25.5994H19.1903C22.7231 25.5994 25.5881 28.4657 25.5881 32C25.5881 35.5343 22.7231 38.4006 19.1903 38.4006H12.7926C5.72703 38.4006 0 44.1301 0 51.2017C0 58.2733 5.72703 64 12.7926 64C19.8581 64 25.5852 58.2704 25.5852 51.2017V44.8012C25.5852 41.2668 28.4501 38.4006 31.9829 38.4006C35.5157 38.4006 38.3807 41.2668 38.3807 44.8012V51.2017C38.3807 58.2704 44.1077 64 51.1732 64C58.2388 64 63.9658 58.2704 63.9658 51.2017C63.9658 44.133 58.2388 38.4006 51.1732 38.4006L51.1761 38.3977Z" fill="url(#paint0_linear_146_4333)"/>
<path d="M103.705 19.0212H85.3188V46.7252H90.2477V27.3324H104.093C110.296 27.3324 111.514 30.1582 111.514 33.8705V46.7252H116.886V30.0474C116.886 19.4644 108.468 19.0212 103.705 19.0212Z" fill="white"/>
<path d="M162.501 46.7252V30.2136C162.391 21.1821 157.185 19.0212 152.422 19.0212H125.175V27.3324H149.764C155.966 27.3324 157.572 29.8811 157.572 33.8151V38.414H128.719C127.39 38.414 126.725 37.8045 126.725 36.918C126.725 36.0314 127.39 35.5328 128.719 35.5328H152.09V30.2136H137.192C129.273 30.2136 124.067 31.7096 124.067 37.9153C124.067 46.836 133.316 46.7252 138.3 46.7252H162.501Z" fill="white"/>
<path d="M210.168 27.3324C216.426 27.3324 217.645 29.8811 217.645 33.8151V46.7252H222.961V30.269C222.961 19.6861 214.931 19.0212 209.781 19.0212H208.175C203.91 19.0212 200.809 19.9631 197.431 23.343C194.994 19.6861 190.563 19.0212 187.185 19.0212H169.74V46.7252H175.721V27.3324H186.465C192.668 27.3324 193.831 30.1028 193.831 33.8151V46.7252H199.203V31.8758C199.147 28.4959 202.415 27.3324 204.575 27.3324H210.168Z" fill="white"/>
<path d="M233.997 32.8732C233.997 29.2162 236.932 27.3324 239.59 27.3324H261.521C262.739 27.3324 264.124 27.3324 264.124 28.7176C264.124 30.2136 262.296 30.2136 261.521 30.2136H239.646V35.5328H253.657C260.746 35.4774 266.782 35.3111 266.782 27.8865C266.782 20.5172 260.801 19.0212 255.429 19.0212H243.135C235.824 19.0212 230.12 23.62 230.12 32.8732C230.12 41.7939 235.991 46.7252 243.19 46.7252H265.564V38.414H239.147C235.88 38.414 233.997 35.7544 233.997 32.8732Z" fill="white"/>
<path d="M284.557 38.414C279.185 38.414 278.299 35.699 278.299 32.1529V7.93956H272.927V35.699C272.927 44.6751 278.133 46.7252 283.062 46.7252H288.378V38.414H284.557Z" fill="white"/>
<path d="M300.834 46.7252V19.0212H295.074V46.7252H300.834ZM300.834 16.0291V7.93956H295.074V16.0291H300.834Z" fill="white"/>
<path d="M326.521 19.0212H308.134V46.7252H313.063V27.3324H326.908C333.111 27.3324 334.329 30.1582 334.329 33.8705V46.7252H339.701V30.0474C339.701 19.4644 331.283 19.0212 326.521 19.0212Z" fill="white"/>
<path d="M370.087 27.3324H380V19.0212H371.084L352.863 33.7043V7.93956H346.938V46.7252H352.863V41.2398L359.675 35.8652L370.198 46.7252H380V38.414H370.474L364.659 32.0421L370.087 27.3324Z" fill="white"/>
<defs>
<linearGradient id="paint0_linear_146_4333" x1="204.476" y1="64" x2="204.476" y2="-12.4878" gradientUnits="userSpaceOnUse">
<stop offset="0.0625" stop-color="#D9D5C2"/>
<stop offset="0.140625" stop-color="#B2D2EF"/>
<stop offset="0.473958" stop-color="#18DCAD"/>
<stop offset="1" stop-color="#31C28E"/>
</linearGradient>
</defs>
</svg>
